<svg width="16" height="16" viewBox="0 0 16 16" color=#FFFCF8 xmlns="http://www.w3.org/2000/svg">
  <path
    d="M8.93704 8.001L12.465 4.47496C12.7251 4.21501 12.7251 3.79508 12.465 3.53513C12.2049 3.27517 11.7847 3.27517 11.5246 3.53513L7.99671 7.06116L4.46878 3.52846C4.20869 3.26851 3.78854 3.26851 3.52844 3.52846C3.26835 3.78841 3.26835 4.20834 3.52844 4.46829L7.05637 8.001L3.52844 11.527C3.26835 11.787 3.26835 12.2069 3.52844 12.4669C3.65516 12.6002 3.82188 12.6668 3.99528 12.6668C4.16867 12.6668 4.3354 12.6002 4.46878 12.4735L7.99671 8.94083L11.5246 12.4669C11.658 12.6002 11.8247 12.6668 11.9981 12.6668C12.1715 12.6668 12.3383 12.6002 12.4716 12.4735C12.7317 12.2136 12.7317 11.7937 12.4716 11.5337L8.93704 8.001Z"
    fill="currentColor" />
</svg>